# xmcd
#
# Track frame offsets: 
#        150
#        12703
#        28812
#        42760
#        66334
#        78432
#        90390
#        107322
#        120485
#        135182
#        148500
#        158834
#        172931
#        185095
#        192927
#        210908
#        222143
#
# Disc length: 3128 seconds
#
# Revision: 0
# Processed by: cddbd v1.5.2PL0 Copyright (c) Steve Scherf et al.
# Submitted via: ExactAudioCopy v0.99pb5
#
DISCID=dc0c3611
DTITLE=Commander Cody  - Live from Armadillo World HQ 1973 Disc 1
DYEAR=1900
DGENRE=
TTITLE0=Blue Suede Shoes
TTITLE1=Down and Out
TTITLE2=Ain't Nothing Shaking But the Leaves on the Trees
TTITLE3=Milk Cow Blues
TTITLE4=What Made Milwaukee Famous
TTITLE5=Hard Headed Woman
TTITLE6=Beat Me Daddy Eight to the Bar
TTITLE7=Wine Wine Wine
TTITLE8=Truck Driving Man
TTITLE9=Hot Rod Lincoln
TTITLE10=Lawdy Miss Clawdy
TTITLE11=Hey Hey Hey
TTITLE12=Rock That Boogie
TTITLE13=Sea Cruise
TTITLE14=Oh Mama Mama
TTITLE15=Rip It Up
TTITLE16=Riot in Cell Block No. 9
EXTD=
EXTT0=
EXTT1=
EXTT2=
EXTT3=
EXTT4=
EXTT5=
EXTT6=
EXTT7=
EXTT8=
EXTT9=
EXTT10=
EXTT11=
EXTT12=
EXTT13=
EXTT14=
EXTT15=
EXTT16=
PLAYORDER=
